<?xml version="1.0" encoding="utf-8"?>
<!-- Generator: Adobe Illustrator 22.0.1, SVG Export Plug-In . SVG Version: 6.00 Build 0)  -->
<svg version="1.1" id="Layer_1" xmlns="http://www.w3.org/2000/svg" xmlns:xlink="http://www.w3.org/1999/xlink" x="0px" y="0px"
	 viewBox="0 0 512 512" style="enable-background:new 0 0 512 512;" xml:space="preserve">
<style type="text/css">
	.st0{fill:#FF6464;}
	.st1{fill:#D2555A;}
	.st2{fill:#FFFFFF;}
	.st3{font-family:'ArialRoundedMTBold';}
	.st4{font-size:208.4132px;}
	.st5{letter-spacing:-6.3;}
	.st6{font-size:229.1709px;}
	.st7{letter-spacing:-7.3;}
</style>
<path class="st0" d="M255.7,511.7c-141.2,0-256-114.8-256-256s114.8-256,256-256s256,114.8,256,256S396.8,511.7,255.7,511.7z"/>
<path class="st1" d="M376.5,426.7c-141.2,0-256-114.8-256-256c0-59.1,20.3-113.4,54.1-156.8C73.8,48.3,1,143.7,1,256
	c0,141.2,114.8,256,256,256c82.1,0,155-39,201.9-99.2C433,421.6,405.3,426.7,376.5,426.7z"/>
<g>
	<path class="st2" d="M90.9,409.6c-2.8-0.8-5.4-2.7-6.9-5.5c-3.1-5.6-1.1-12.6,4.5-15.7l186-103.3c5.6-3.1,12.6-1.1,15.7,4.5
		c3.1,5.6,1.1,12.6-4.5,15.7l-186,103.3C97,410.1,93.8,410.4,90.9,409.6z"/>
	<path class="st2" d="M140.2,321.4c-21.5-6.1-34-28.6-27.8-50.1c6.1-21.5,28.6-34,50.1-27.8s34,28.6,27.8,50.1
		S161.7,327.5,140.2,321.4z M156.1,265.7c-9.2-2.6-18.8,2.7-21.5,11.9s2.7,18.8,11.9,21.5s18.8-2.7,21.5-11.9
		S165.4,268.3,156.1,265.7z"/>
	<path class="st2" d="M211.8,450.1c-21.5-6.1-34-28.6-27.8-50.1c6.1-21.5,28.6-34,50.1-27.8s34,28.6,27.8,50.1
		S233.2,456.3,211.8,450.1z M227.7,394.5c-9.2-2.6-18.8,2.7-21.5,11.9s2.7,18.8,11.9,21.5c9.2,2.6,18.8-2.7,21.5-11.9
		C242.2,406.8,236.9,397.1,227.7,394.5z"/>
</g>
<polygon style="fill:none;" points="937.1,356.6 931.1,356.6 931.1,356.6 937.1,356.6 "/>
<text transform="matrix(0.8744 0.3962 -0.4003 0.8836 108.1108 165.7755)" class="st2 st3 st4 st5">3</text>
<text transform="matrix(0.8744 0.3962 -0.4003 0.8836 247.3647 231.163)" class="st2 st3 st4 st5">1</text>
<text transform="matrix(0.8744 0.3962 -0.4003 0.8836 322.1546 265.0465)" class="st2 st3 st4 st5">0</text>
<text transform="matrix(0.96 0 0 0.97 805.0629 652.6479)" class="st3" style="font-size:301px; letter-spacing:-9.4;">5</text>
<text transform="matrix(0.8744 0.3962 -0.4003 0.8836 208.8583 215.8721)" class="st2 st3 st6 st7">-</text>
</svg>
