<svg xmlns="http://www.w3.org/2000/svg" id="Layer_1" data-name="Layer 1" viewBox="0 0 940 424"><defs><style>.cls-3{fill:#6b6b6b}.cls-4{fill:#fe0000}</style></defs><path d="M626 153h208-2zM355 153h-64 2zM1167 153h63v1l-3-1h-60zM520 153h63-63zM1002 153h-64zM1168 576h61zM353 576h-60 3z" class="cls-3" transform="translate(-291 -153)"/><path d="M761 559H412c-19 0-35-13-40-29a42 42 0 0 1-1-11v-84c0-20 13-36 33-40a40 40 0 0 1 8-1h699c21 0 37 15 40 35a43 43 0 0 1 0 6v83c0 21-13 38-34 41a45 45 0 0 1-7 0H761zm-358-54h-3c-5 0-5 0-5 5 2 13 9 22 22 25a47 47 0 0 0 21-1c12-3 20-9 23-21s0-23-11-31a64 64 0 0 0-10-6l-14-7a38 38 0 0 1-10-7c-4-5-5-11-1-16 4-6 11-7 18-6 6 1 10 5 11 12l2 1h13c2 0 2 0 2-2-2-11-8-20-19-24a41 41 0 0 0-30 2c-12 6-18 18-15 31 1 8 6 14 13 18l14 7c5 3 11 5 16 9a15 15 0 0 1 1 22c-6 6-12 7-19 5s-10-7-11-14c0-2 0-3-2-2h-6zm697-8h26c1 0 2 0 2-2-1-7-1-13-3-19-4-11-10-19-21-22a38 38 0 0 0-13-1c-15 1-25 8-31 22-5 13-4 26 0 39 4 9 11 16 20 19a41 41 0 0 0 13 2c7 1 15 0 21-4a20 20 0 0 0 9-12c1-2 0-2-1-2h-15c-2 4-6 5-10 6-10 1-19-4-23-13a32 32 0 0 1-2-11c0-2 0-2 2-2h26zm-553 0h26c1 0 2 0 2-2a68 68 0 0 0-3-19c-4-11-10-19-21-22a38 38 0 0 0-13-1c-15 1-26 8-31 22-5 13-5 26 0 39a32 32 0 0 0 18 18 44 44 0 0 0 20 3c6 0 11-1 16-4a20 20 0 0 0 9-12c1-1 1-2-1-2h-15c-2 4-6 5-10 6-11 1-21-5-24-16a39 39 0 0 1-1-8c0-2 0-2 2-2h26zm213 37h9a2 2 0 0 0 2-1l28-77c1-2 0-2-1-2h-10c-2 0-3 1-3 2l-13 37-10 28-1 2-2-2v-1l-23-64a2 2 0 0 0-3-2h-10c-2 0-2 1-2 2l10 26 18 50c1 2 1 2 3 2h8zm245-58h6c2 0 2 0 2-2-2-9-6-16-15-19-5-2-10-2-15-2-14 1-24 9-28 22-4 11-4 21-2 32a42 42 0 0 0 4 11c6 13 18 19 33 17 14-2 22-10 23-24 1-2 0-2-2-2h-11c-1 0-2 0-2 2-1 10-9 13-17 11-6-1-10-5-12-11a58 58 0 0 1-1-33c3-9 9-13 19-12 4 0 8 1 10 6 1 4 3 5 7 4a11 11 0 0 1 1 0zm-369-13v-7c0-1 0-2-2-2h-9c-2 0-2 0-2 2v75c0 3 0 3 3 3h8c2 0 2 0 2-2v-35c0-9 2-17 7-24a18 18 0 0 1 15-8 9 9 0 0 1 9 8 17 17 0 0 1 1 4l1 1h7c6 0 6 0 5-6-1-9-7-16-15-18a30 30 0 0 0-16 0c-5 2-10 5-14 9zm251 32v-38c0-1 0-2-2-2h-35c-2 0-2 0-2 2v9c-1 2 0 2 2 2h20c2 0 2 1 2 3v61c0 2 1 2 2 2h10c2 0 3 0 3-2v-37zm-10-59h9l1-1v-15l-1-2h-18l-1 2v15l2 1h8z" class="cls-4" transform="translate(-291 -153)"/><path d="M626 153h208c24 1 51 17 59 46a65 65 0 0 1 2 17v96c0 32-22 56-48 62a71 71 0 0 1-17 2H628c-2 0-2-1-2-2v-51c0-2 0-2 2-2h176c13 0 22-8 26-20a61 61 0 0 0 2-20v-39c0-10-2-19-9-26a19 19 0 0 0-15-7H629c-2 0-3-1-3-3v-51-2zM520 153h63l-1 2-135 220a3 3 0 0 1-3 1h-13a3 3 0 0 1-4-1L327 212l-35-58 2-1h61l43 67 37 59c2 2 2 1 3 0l80-124 2-2zM938 153h64l22 35 58 90 2 3 22-36 59-90 2-2h60l3 1-54 87-82 133a4 4 0 0 1-4 2h-13a3 3 0 0 1-3-2l-72-116-63-103-1-2zM353 576h-60v-2-361l13 20 46 76a8 8 0 0 1 1 5v262zM1229 576h-61v-3-259a8 8 0 0 1 1-4l58-96 2-2v364zM940 212l1 2 58 96a8 8 0 0 1 1 4v60c0 2-1 2-3 2h-55c-2 0-3 0-3-2V215zM582 213v161c0 2 0 2-2 2h-56c-2 0-2 0-2-2v-61a6 6 0 0 1 0-3l59-96 1-1z" transform="translate(-291 -153)"/><path d="M657 291h-29l-2-2v-49c0-2 1-2 2-2h59c1 0 2 0 2 2v49l-2 2h-30z" transform="translate(-291 -153)"/><path d="M293 213v-1 1z" class="cls-3" transform="translate(-291 -153)"/><path d="M1092 484h-18c-2 0-2 0-1-2 2-8 6-14 15-16 12-3 22 3 24 16 1 2 0 2-2 2h-18zM539 484h-18c-1 0-2 1-2-1 4-16 16-20 28-17 8 3 11 10 12 17 1 2 0 1-1 1h-19z" class="cls-4" transform="translate(-291 -153)"/></svg>